<svg width="375" height="812" viewBox="0 0 375 812" fill="none" xmlns="http://www.w3.org/2000/svg">
<g id="Mobile" clip-path="url(#clip0_61385:181)">
<rect width="375" height="812" fill="#202024"/>
<g id="Group 6683">
<circle id="degrad&#195;&#170;1" cx="278" cy="106" r="300" transform="rotate(-180 278 106)" fill="url(#paint0_radial_61385:181)"/>
<circle id="degrad&#195;&#170;2" cx="98" cy="106" r="300" transform="rotate(-180 98 106)" fill="url(#paint1_radial_61385:181)"/>
<g id="mask">
<mask id="mask0_61385:181" style="mask-type:alpha" maskUnits="userSpaceOnUse" x="0" y="-15" width="375" height="812">
<rect id="retangle" y="-15" width="375" height="812" fill="white"/>
</mask>
<g mask="url(#mask0_61385:181)">
<g id="vetor">
<path id="Vector" d="M375 175.101V-303.699L187.478 -411.486L-0.0446777 -303.699V175.101L187.478 282.894L375 175.101Z" fill="url(#paint2_linear_61385:181)"/>
<g id="vector" style="mix-blend-mode:luminosity" opacity="0.4">
<path id="Vector_2" d="M1.83662 68.3931V175.797L95.1275 229.505L188.418 175.797V68.3931L95.1275 14.6858L1.83662 68.3931Z" fill="url(#paint3_linear_61385:181)"/>
<path id="Vector_3" d="M1.83662 -39.0166V68.3877L95.1275 122.095L188.418 68.3877V-39.0166L95.1275 -92.7239L1.83662 -39.0166Z" fill="url(#paint4_linear_61385:181)"/>
<path id="Vector_4" d="M281.709 -92.6961V14.7082L188.418 68.4155L95.1274 14.7082V-92.6961L188.418 -146.403L281.709 -92.6961Z" fill="url(#paint5_linear_61385:181)"/>
<path id="Vector_5" d="M188.418 175.797V68.3927L281.709 14.6854L375 68.3927V175.797L281.709 229.504L188.418 175.797Z" fill="url(#paint6_linear_61385:181)"/>
<path id="Vector_6" d="M375 -39.0166V68.3877L281.709 122.095L188.418 68.3877V-39.0166L281.709 -92.7239L375 -39.0166Z" fill="url(#paint7_linear_61385:181)"/>
<path id="Vector_7" d="M281.709 229.527V122.123L188.418 68.4155L95.1274 122.123L95.1274 229.527L188.418 283.234L281.709 229.527Z" fill="url(#paint8_linear_61385:181)"/>
</g>
</g>
</g>
</g>
</g>
</g>
<defs>
<radialGradient id="paint0_radial_61385:181" cx="0" cy="0" r="1" gradientUnits="userSpaceOnUse" gradientTransform="translate(278 106) rotate(90) scale(300)">
<stop stop-color="#FFC323"/>
<stop offset="1" stop-color="#121214" stop-opacity="0"/>
</radialGradient>
<radialGradient id="paint1_radial_61385:181" cx="0" cy="0" r="1" gradientUnits="userSpaceOnUse" gradientTransform="translate(98 106) rotate(90) scale(300)">
<stop stop-color="#FF3D6E"/>
<stop offset="1" stop-color="#121214" stop-opacity="0"/>
</radialGradient>
<linearGradient id="paint2_linear_61385:181" x1="-67.9497" y1="65.9385" x2="436.115" y2="239.357" gradientUnits="userSpaceOnUse">
<stop stop-color="#FF008E"/>
<stop offset="1" stop-color="#FFCD1E"/>
</linearGradient>
<linearGradient id="paint3_linear_61385:181" x1="95.1275" y1="224.565" x2="2.23833" y2="66.047" gradientUnits="userSpaceOnUse">
<stop stop-color="#8257E5"/>
<stop offset="1" stop-color="#FF008E" stop-opacity="0"/>
</linearGradient>
<linearGradient id="paint4_linear_61385:181" x1="95.1275" y1="117.155" x2="2.23831" y2="-41.3627" gradientUnits="userSpaceOnUse">
<stop stop-color="#8257E5"/>
<stop offset="1" stop-color="#FF008E" stop-opacity="0"/>
</linearGradient>
<linearGradient id="paint5_linear_61385:181" x1="95.1275" y1="-98.7323" x2="281.421" y2="13.6857" gradientUnits="userSpaceOnUse">
<stop stop-color="#FF008E" stop-opacity="0"/>
<stop offset="1" stop-color="#FFCD1E"/>
</linearGradient>
<linearGradient id="paint6_linear_61385:181" x1="375" y1="181.833" x2="188.706" y2="69.4152" gradientUnits="userSpaceOnUse">
<stop stop-color="#FF008E" stop-opacity="0"/>
<stop offset="1" stop-color="#FFCD1E"/>
</linearGradient>
<linearGradient id="paint7_linear_61385:181" x1="281.709" y1="117.155" x2="374.598" y2="-41.3627" gradientUnits="userSpaceOnUse">
<stop stop-color="#8257E5"/>
<stop offset="1" stop-color="#FF008E" stop-opacity="0"/>
</linearGradient>
<linearGradient id="paint8_linear_61385:181" x1="188.418" y1="73.3552" x2="281.307" y2="231.873" gradientUnits="userSpaceOnUse">
<stop stop-color="#8257E5"/>
<stop offset="1" stop-color="#FF008E" stop-opacity="0"/>
</linearGradient>
<clipPath id="clip0_61385:181">
<rect width="375" height="812" fill="white"/>
</clipPath>
</defs>
</svg>
