<svg width="375" height="807" viewBox="0 0 375 807" fill="none" xmlns="http://www.w3.org/2000/svg">
<circle cx="278" cy="116" r="300" transform="rotate(-180 278 116)" fill="url(#paint0_radial_61492:2)"/>
<circle cx="98" cy="116" r="300" transform="rotate(-180 98 116)" fill="url(#paint1_radial_61492:2)"/>
<mask id="mask0_61492:2" style="mask-type:alpha" maskUnits="userSpaceOnUse" x="0" y="-5" width="375" height="812">
<rect y="-4.99998" width="375" height="812" fill="#202024"/>
</mask>
<g mask="url(#mask0_61492:2)">
<path d="M375 185.101V-293.699L187.478 -401.486L-0.0446777 -293.699V185.101L187.478 292.894L375 185.101Z" fill="url(#paint2_linear_61492:2)"/>
<g style="mix-blend-mode:luminosity" opacity="0.4">
<path d="M1.83662 78.3931V185.797L95.1275 239.505L188.418 185.797V78.3931L95.1275 24.6858L1.83662 78.3931Z" fill="url(#paint3_linear_61492:2)"/>
<path d="M1.83662 -29.0166V78.3877L95.1275 132.095L188.418 78.3877V-29.0166L95.1275 -82.7239L1.83662 -29.0166Z" fill="url(#paint4_linear_61492:2)"/>
<path d="M281.709 -82.6961V24.7082L188.418 78.4155L95.1274 24.7082V-82.6961L188.418 -136.403L281.709 -82.6961Z" fill="url(#paint5_linear_61492:2)"/>
<path d="M188.418 185.797V78.3927L281.709 24.6854L375 78.3927V185.797L281.709 239.504L188.418 185.797Z" fill="url(#paint6_linear_61492:2)"/>
<path d="M375 -29.0166V78.3877L281.709 132.095L188.418 78.3877V-29.0166L281.709 -82.7239L375 -29.0166Z" fill="url(#paint7_linear_61492:2)"/>
<path d="M281.709 239.527V132.123L188.418 78.4155L95.1274 132.123L95.1274 239.527L188.418 293.234L281.709 239.527Z" fill="url(#paint8_linear_61492:2)"/>
</g>
</g>
<defs>
<radialGradient id="paint0_radial_61492:2" cx="0" cy="0" r="1" gradientUnits="userSpaceOnUse" gradientTransform="translate(278 116) rotate(90) scale(300)">
<stop stop-color="#FFC323"/>
<stop offset="1" stop-color="#121214" stop-opacity="0"/>
</radialGradient>
<radialGradient id="paint1_radial_61492:2" cx="0" cy="0" r="1" gradientUnits="userSpaceOnUse" gradientTransform="translate(98 116) rotate(90) scale(300)">
<stop stop-color="#FF3D6E"/>
<stop offset="1" stop-color="#121214" stop-opacity="0"/>
</radialGradient>
<linearGradient id="paint2_linear_61492:2" x1="-67.9497" y1="75.9385" x2="436.115" y2="249.357" gradientUnits="userSpaceOnUse">
<stop stop-color="#FF008E"/>
<stop offset="1" stop-color="#FFCD1E"/>
</linearGradient>
<linearGradient id="paint3_linear_61492:2" x1="95.1275" y1="234.565" x2="2.23833" y2="76.047" gradientUnits="userSpaceOnUse">
<stop stop-color="#8257E5"/>
<stop offset="1" stop-color="#FF008E" stop-opacity="0"/>
</linearGradient>
<linearGradient id="paint4_linear_61492:2" x1="95.1275" y1="127.155" x2="2.23831" y2="-31.3627" gradientUnits="userSpaceOnUse">
<stop stop-color="#8257E5"/>
<stop offset="1" stop-color="#FF008E" stop-opacity="0"/>
</linearGradient>
<linearGradient id="paint5_linear_61492:2" x1="95.1275" y1="-88.7323" x2="281.421" y2="23.6857" gradientUnits="userSpaceOnUse">
<stop stop-color="#FF008E" stop-opacity="0"/>
<stop offset="1" stop-color="#FFCD1E"/>
</linearGradient>
<linearGradient id="paint6_linear_61492:2" x1="375" y1="191.833" x2="188.706" y2="79.4152" gradientUnits="userSpaceOnUse">
<stop stop-color="#FF008E" stop-opacity="0"/>
<stop offset="1" stop-color="#FFCD1E"/>
</linearGradient>
<linearGradient id="paint7_linear_61492:2" x1="281.709" y1="127.155" x2="374.598" y2="-31.3627" gradientUnits="userSpaceOnUse">
<stop stop-color="#8257E5"/>
<stop offset="1" stop-color="#FF008E" stop-opacity="0"/>
</linearGradient>
<linearGradient id="paint8_linear_61492:2" x1="188.418" y1="83.3552" x2="281.307" y2="241.873" gradientUnits="userSpaceOnUse">
<stop stop-color="#8257E5"/>
<stop offset="1" stop-color="#FF008E" stop-opacity="0"/>
</linearGradient>
</defs>
</svg>
